<svg width="96" height="96" viewBox="0 0 96 96" fill="none" xmlns="http://www.w3.org/2000/svg">
<g clip-path="url(#clip0_58_150)">
<rect width="96" height="96" fill="white"/>
<path d="M62.5 87C63.5 86 63.2783 85.8601 64.1032 85.0988C64.6625 84.5826 65.2219 84.0816 65.8051 83.5806C66.3883 83.0795 66.8049 82.7304 67.3405 82.3508L67.7451 82.0623L67.9236 81.9105L68.4949 81.4702C69.6018 80.6048 70.7563 79.8456 71.9107 79.0865C72.4286 78.8014 72.9569 78.5481 73.4937 78.3274C73.8373 78.1683 74.192 78.0513 74.5529 77.9782C72.3389 78.0766 70.1342 78.3964 67.9593 78.9347C64.2909 79.7434 60.6657 80.8438 57.1049 82.2293C56.6169 82.4115 56.1051 82.5026 55.6053 82.6393C55.4624 82.6393 55.3196 82.6393 55.2601 82.4722C55.2209 82.3791 55.2114 82.2703 55.2335 82.1685C55.2557 82.0666 55.3079 81.9796 55.3791 81.9257C55.6301 81.7177 55.9082 81.5685 56.2003 81.4854C59.521 80.2707 62.8654 79.1776 66.2693 78.4488C70.1201 77.5943 74.0067 77.0265 77.9092 76.7484C78.2608 76.4871 78.6367 76.2831 79.028 76.1411C82.2348 74.6205 85.5145 73.3628 88.847 72.3758C88.5382 72.1902 88.2004 72.0968 87.8592 72.1025C87.3177 72.0807 86.7794 71.9892 86.2524 71.8292C85.6065 71.7574 84.9985 71.4097 84.5267 70.8423C82.6919 70.7436 80.8539 70.8197 79.028 71.0701C75.042 71.4556 71.0954 72.3405 67.2452 73.7118C64.1307 74.8371 61.0838 76.2477 58.1284 77.9326C56.9383 78.6007 55.8433 79.4509 54.6888 80.2556C54.386 80.4754 54.0619 80.6439 53.7248 80.7566C53.6728 80.7814 53.6159 80.7845 53.5624 80.7654C53.5089 80.7463 53.4616 80.706 53.4272 80.6503C53.3988 80.5908 53.3838 80.5226 53.3838 80.4529C53.3838 80.3833 53.3988 80.315 53.4272 80.2556C53.7091 79.7522 54.0912 79.3538 54.5341 79.1017C56.4247 77.7641 58.3806 76.5825 60.3898 75.5641C65.7332 72.8725 71.3387 71.1206 77.0523 70.3565C80.4102 69.9338 83.7828 69.7311 87.157 69.7492C88.0212 69.7467 88.8805 69.9157 89.7039 70.2502C90.0277 70.3085 90.326 70.5068 90.549 70.812C91.4902 70.8671 92.4319 70.7183 93.334 70.3717C93.0454 70.0411 92.7155 69.7742 92.358 69.5822C91.2561 68.8632 90.2118 68.009 89.2398 67.0315C88.1813 66.0351 87.2221 64.8777 86.3834 63.585C86.6359 63.521 86.8978 63.5582 87.1332 63.6913L93.3697 65.4069C93.6197 65.4069 93.8815 65.6195 94.1433 65.4069C94.1433 65.164 94.0838 64.997 94.0005 64.83C92.37 61.1861 90.906 57.4208 89.2398 53.8225C88.728 52.7446 88.2638 51.6059 87.8116 50.4672C87.1818 48.9069 86.7023 47.2552 86.3834 45.548C85.921 42.5497 85.7531 39.4896 85.8835 36.4384C85.8835 33.5081 86.0144 30.5931 86.0739 27.6628C86.1334 24.7326 86.1453 21.8175 86.181 18.8872C86.2524 16.1683 86.2047 13.4463 86.0382 10.7341C85.8359 10.1876 85.6216 9.6258 85.4193 9.06405C84.2291 5.70868 82.2177 4.70663 79.4684 5.61759C78.873 5.92887 78.2492 6.14312 77.6117 6.25526L77.3261 6.43745C73.8642 9.27554 70.6169 12.5183 67.6261 16.124C66.9791 16.9416 66.2827 17.6929 65.5433 18.371C64.0265 20.1349 62.6656 22.1052 61.4848 24.2467C61.4041 24.3903 61.2859 24.4926 61.1515 24.5352C61.1638 24.8788 61.102 25.2201 60.973 25.5221C58.9461 31.0317 57.2202 36.7134 55.8076 42.5266C54.546 47.5065 53.4272 52.5168 52.4751 57.603C51.7134 61.7175 51.1183 65.8624 50.5946 70.0376C50.3447 72.0266 50.0828 74.0155 49.8329 76.0196C49.8207 76.3281 49.8207 76.6372 49.8329 76.9458L50.5113 77.3101C51.142 77.5855 51.6935 78.0958 52.0945 78.7751C52.4955 79.4545 52.7276 80.2716 52.7607 81.121C52.8049 82.0402 52.4566 82.7838 52.0945 83.5806C51.7325 84.3774 51.6473 83.5921 51 84C50.4733 84.3639 50.5 80.5 49 81C48.9203 81.007 48.8781 86.3639 48.8075 86.4116C48.7369 86.4593 48.675 86.5253 48.6256 86.6054C48.5763 86.6855 48.5407 86.778 48.521 86.8767C48.5014 86.9755 48.4983 87.0784 48.5118 87.1789C48.4809 87.872 48.5661 88.5655 48.7617 89.2133C48.8337 89.453 48.8462 89.9285 49 90.0939C49.1538 90.2594 49.4438 90.1095 49.6411 90.1596C49.8385 90.2096 50.0425 90.195 50.2343 90.1172C50.426 90.0393 50.5991 89.9007 50.7374 89.7144C50.9636 89.4714 51.1421 89.1678 51.3563 88.8945C51.5705 88.6212 51.5586 88.515 51.7491 88.6668C51.9395 88.8186 51.8562 89.0312 51.8324 89.2285C51.7654 89.6318 51.3261 89.8767 51.1172 90.1912C50.9083 90.5057 50.8008 90.3495 50.5 90.5C50.1991 90.6505 50.0092 91.2339 49.6884 91.1843C49.3676 91.1348 49.0614 90.9845 48.7974 90.7468C48.5475 90.5342 48.4166 90.018 48.119 90.0939C47.8215 90.1698 47.6429 90.5342 47.4049 90.7316C47.183 90.931 46.9315 91.0707 46.6659 91.1421C46.4003 91.2135 46.126 91.2151 45.8599 91.1469C45.5937 91.0788 45.3413 90.9421 45.1179 90.7455C44.8944 90.5488 44.7048 90.2961 44.5604 90.0028C44.4703 89.8336 44.3982 89.6498 44.3461 89.4563C44.2866 89.1678 44.1914 88.8034 44.4533 88.6212C44.7151 88.439 44.8341 88.7882 44.9769 88.9856C45.1763 89.3057 45.3952 89.6052 45.6315 89.8814C45.744 90.0231 45.881 90.1292 46.0315 90.1912C46.1819 90.2532 46.3417 90.2693 46.4979 90.2383C46.6541 90.2073 47.2763 90.849 47.4049 90.7316C47.5335 90.6142 48.2617 89.9374 47.5 89.5C47.8682 88.6492 47.7287 87.723 47.5834 86.7689C47.5834 86.5716 47.4644 86.4805 47.3216 86.4349L47 81C45 81.5 45.459 84.8642 44.7865 84C44.4302 83.5506 43.6919 83.5283 43.5196 82.9281C43.3472 82.328 43.2808 81.6867 43.3251 81.05C43.3695 80.4133 43.5234 79.797 43.7761 79.245C44.0287 78.693 44.3737 78.219 44.7865 77.8567C45.3225 77.4592 45.8792 77.1092 46.4528 76.8091C46.2861 74.2432 46.0481 71.6774 45.7149 69.1419C45.4173 66.8797 45.1555 64.5871 44.7984 62.3552C44.4414 60.1234 44.0367 58.1952 43.6082 56.1303C42.906 52.7749 42.0848 49.4651 41.2279 46.1401C40.1924 41.9345 39.1451 37.7441 37.8001 33.6752C37.1081 31.5395 36.3131 29.4606 35.4198 27.4503C34.9846 26.5778 34.6367 25.6393 34.3843 24.6567C34.2995 24.5737 34.2199 24.4823 34.1463 24.3834C32.6625 22.197 31.1034 20.0968 29.4689 18.0826C26.1987 14.1637 22.7745 10.4595 19.2095 6.98402C18.6388 6.35505 18.0116 5.81481 17.3409 5.37466L17.1981 5.22283C16.6665 5.26 16.134 5.17252 15.6271 4.96473C14.8842 4.80534 14.1304 4.74429 13.3776 4.78253C12.6475 4.77275 11.9317 5.04042 11.3212 5.55144C10.7108 6.06247 10.2334 6.79373 9.94992 7.65206C9.7904 8.33445 9.56237 8.98766 9.27151 9.59544V9.79282C9.09298 17.3842 9.06918 24.8844 9.15249 32.415C9.28949 35.994 9.22983 39.5808 8.97396 43.1491C8.7428 46.1763 8.03864 49.1137 6.90305 51.7881C6.33176 53.0634 5.71287 54.3387 5.11778 55.5989C3.561 58.7451 2.3176 62.1266 1.41632 65.665C1.27535 65.9828 1.22887 66.3547 1.28539 66.7126L3.3206 65.908L5.29631 65.4069C5.97471 65.1944 6.65312 64.9818 7.34342 64.8148C8.05226 64.5795 8.77805 64.4371 9.50955 64.3897L8.72403 65.331C7.20364 67.1381 5.58925 68.812 3.89189 70.3413C4.29474 70.3686 4.6981 70.3017 5.08208 70.1439C5.34793 69.8529 5.66085 69.6404 5.99851 69.5214C7.45417 68.8753 8.97139 68.4821 10.5093 68.3524C9.68807 69.0052 8.72403 69.233 7.9147 69.8706C9.45004 69.8706 10.9854 69.8706 12.5207 69.8706C19.2575 69.8912 25.948 71.2906 32.3372 74.0155C35.1838 75.2038 37.9371 76.7287 40.5614 78.5703C41.0604 78.9224 41.524 79.3507 41.942 79.8456C42.0971 80.0334 42.2403 80.2365 42.3704 80.4529C42.423 80.5089 42.4588 80.5863 42.4718 80.6721C42.4848 80.7578 42.4742 80.8466 42.4419 80.9236C42.3971 80.9888 42.3372 81.0342 42.2709 81.0533C42.2046 81.0724 42.1353 81.0642 42.0729 81.0299C41.7377 80.8883 41.4267 80.6668 41.1565 80.377C39.9829 79.2964 38.7362 78.3514 37.4312 77.5531C33.8017 75.4091 29.9866 73.8191 26.065 72.8161C22.2421 71.743 18.3573 71.0677 14.4488 70.7968C12.2681 70.5466 10.0753 70.5161 7.8909 70.7057C7.53794 70.7174 7.18858 70.7994 6.85544 70.9486C6.46268 71.4648 5.9152 71.4193 5.41532 71.6015V71.7988C7.00593 71.7889 8.59503 71.6723 10.176 71.4496C11.4266 71.2902 12.6865 71.2902 13.937 71.4496C12.5802 72.1328 11.1044 72.3302 9.74758 72.9679C9.74758 73.1956 9.8547 73.1805 9.92611 73.1956C12.1477 73.7689 14.335 74.54 16.4721 75.5034C17.3139 75.7928 18.1165 76.2433 18.8525 76.8395L23.6132 77.3101C26.9759 77.6717 30.3133 78.3466 33.5988 79.3294C35.4674 79.876 37.3241 80.4985 39.1808 81.0906C39.6821 81.2397 40.169 81.4586 40.6328 81.7435C40.8232 81.8649 41.0374 82.0168 40.9184 82.366C40.876 82.4944 40.7978 82.5981 40.6988 82.657C40.5998 82.716 40.4872 82.7259 40.3828 82.6848C39.9544 82.5785 39.5378 82.4571 39.1213 82.3052C37.4074 81.6979 35.7292 80.9236 33.9916 80.4074C30.9931 79.5147 27.9572 78.8406 24.8986 78.3881C23.5942 78.0947 22.2717 77.9524 20.9472 77.963V78.0693C21.6161 78.1083 22.2737 78.3038 22.8872 78.6462C25.2467 79.4064 27.5049 80.6088 29.5879 82.2141C29.9548 82.4944 30.3049 82.809 30.6353 83.1555C30.8018 83.299 30.9608 83.4563 31.1113 83.6261L31.7778 84.2638C32.2382 84.6815 32.6405 85.1947 32.968 85.7821L33.1108 86.0402C33.1108 86.1161 33.218 86.192 33.2656 86.2831L33.5036 86.5412L33.7297 86.8145C34.3248 87.5584 34.9199 88.3327 35.5745 88.9856C37.7342 91.3348 40.1624 93.2496 42.7751 94.6639C44.5321 95.6134 46.4232 96.0926 48.3312 96.0717C50.2393 96.0508 52.1237 95.5303 53.8676 94.5425C56.7364 92.9902 59.3492 90.7596 61.5681 87.9684L62.5 87ZM68.2212 27.4503C70.2411 22.8461 72.811 18.6714 75.8383 15.0764C77.516 13.1234 79.4186 11.5105 81.4798 10.2938C81.694 10.1724 81.9321 10.0661 82.1582 9.95983C82.1582 9.95983 82.2534 9.95983 82.301 9.95983C82.3235 10.0024 82.3356 10.0527 82.3356 10.1041C82.3356 10.1554 82.3235 10.2057 82.301 10.2483C80.0474 18.447 78.3744 26.8869 77.3023 35.4667C75.9857 33.7247 74.5068 32.195 72.8986 30.9119C71.3326 29.796 69.7011 28.8366 68.0188 28.0424C68.0426 27.8251 68.1126 27.6203 68.2212 27.4503ZM58.3665 62.3704C59.0007 60.2735 60.0069 58.3923 61.3062 56.8743C63.1459 54.7192 65.5706 53.5617 68.0673 53.6467C70.5641 53.7318 72.937 55.0526 74.6839 57.3297C74.9685 57.6939 75.2164 58.1019 75.4218 58.5443C75.4932 58.7417 75.5527 58.9239 75.4218 59.1213C75.006 60.313 74.4023 61.3828 73.6484 62.2641C72.612 63.6707 71.3548 64.783 69.9588 65.5284C69.652 65.7404 69.3081 65.8501 68.9591 65.8472C68.2583 66.4898 67.4431 66.8998 66.5871 67.0403C65.731 67.1808 64.861 67.0473 64.0555 66.6519C63.3316 66.7118 62.6058 66.5773 61.9251 66.2571C60.6168 65.7304 59.3592 65.0174 58.176 64.1316C57.938 63.4028 58.1998 62.8259 58.3665 62.2793V62.3704ZM17.2576 35.2997C16.452 26.7667 15.0052 18.3522 12.9373 10.1724C13.2699 10.1671 13.5979 10.2717 13.8894 10.476C15.8162 11.4864 17.5676 12.9724 19.0429 14.8486C21.8733 18.4498 24.3802 22.4422 26.5172 26.7518C27.2075 28.1183 27.0528 27.9513 26.065 28.3764C23.0335 29.6732 20.2709 31.8271 17.9836 34.6772C17.8124 34.9947 17.5528 35.2173 17.2576 35.2997ZM38.6809 64.2834C36.819 65.527 34.7594 66.2124 32.6586 66.2875L31.5398 66.5608C30.2477 66.8148 28.9273 66.4585 27.8264 65.5588C27.0635 65.3534 26.3447 64.939 25.7198 64.3441C24.7234 63.5271 23.8186 62.5413 23.03 61.4139C22.4933 60.7559 21.9847 60.0616 21.5066 59.3339C21.1614 59.1668 21.1495 58.848 21.3161 58.514C21.4786 58.1963 21.6617 57.8966 21.8636 57.6182C22.9578 56.0606 24.3281 54.8593 25.8601 54.1145C27.3922 53.3697 29.0417 53.103 30.671 53.3367C31.854 53.5379 32.9922 54.0458 34.0156 54.8291C35.039 55.6124 35.926 56.6546 36.6219 57.8915C37.5838 59.4698 38.2806 61.2838 38.669 63.2206C38.7523 63.5698 38.8594 63.8887 38.6214 64.2834H38.6809ZM43.0965 77.9478C42.9536 78.13 42.787 77.9478 42.668 77.9478C42.1343 77.5374 41.6854 76.9699 41.3588 76.2929C41.2517 76.0803 41.1922 75.8374 41.4778 75.7159L41.7039 75.8222C42.2618 76.1626 42.7384 76.6867 43.0846 77.3405C43.1322 77.5531 43.2155 77.7808 43.0369 77.9933L43.0965 77.9478ZM52.7131 77.5227C52.7068 77.3899 52.7316 77.2578 52.7845 77.1431C53.1268 76.5078 53.584 75.987 54.1175 75.6248C54.3913 75.6248 54.4865 75.7767 54.4746 76.0196C54.1258 76.7903 53.6033 77.4093 52.975 77.796C52.7488 77.9023 52.6655 77.7504 52.6536 77.5531L52.7131 77.5227Z" fill="#FF792F"/>
<path d="M86.3476 63.4332C86.3476 63.4332 86.419 63.4332 86.3476 63.5243C86.2762 63.6154 86.3595 63.5546 86.3476 63.4332Z" fill="#DC675D"/>
<path d="M61.1277 24.6718C61.14 25.0154 61.0782 25.3567 60.9492 25.6587C58.9223 31.1683 57.1964 36.85 55.7838 42.6633C54.5222 47.6432 53.4034 52.6535 52.4513 57.7397C51.6896 61.8542 51.0945 65.999 50.5708 70.1743C50.3209 72.1632 50.059 74.1521 49.8091 76.1562C49.7969 76.4648 49.7969 76.7739 49.8091 77.0824C49.3995 77.0441 48.9975 76.921 48.6189 76.718C48.7126 75.3735 48.6565 74.019 48.4523 72.6946C48.3452 74.0408 48.3812 75.3993 48.5594 76.7332C47.8572 76.9306 47.1312 76.8546 46.429 76.9609C46.2623 74.395 46.0243 71.8292 45.6911 69.2937C45.3935 67.0314 45.1317 64.7389 44.7746 62.507C44.4176 60.2752 44.0129 58.347 43.5844 56.2821C42.8822 52.9268 42.061 49.6169 41.2041 46.2919C40.1686 42.0863 39.1213 37.8959 37.7764 33.827C37.0843 31.6913 36.2893 29.6124 35.396 27.6021C34.9608 26.7296 34.6129 25.7911 34.3605 24.8084C35.605 24.3113 36.8846 23.9706 38.181 23.7912C38.4216 23.7712 38.6583 23.7046 38.8832 23.5939C40.2638 23.5939 41.6206 23.2295 42.9893 23.0473C46.2852 22.6492 49.6012 22.5984 52.9035 22.8954C55.059 23.029 57.2013 23.3999 59.3067 24.0038C59.93 24.1464 60.5402 24.3703 61.1277 24.6718Z" fill="#FFC2A0"/>
<path d="M42.3466 80.4681C42.2165 80.2516 42.0733 80.0486 41.9182 79.8608C41.5002 79.3659 41.0366 78.9376 40.5376 78.5855C37.9133 76.7438 35.16 75.2189 32.3134 74.0307C25.9242 71.3058 19.2337 69.9063 12.4969 69.8858C10.9616 69.8858 9.42624 69.8858 7.89091 69.8858C6.95126 70.0397 6.00555 70.1259 5.05828 70.1439C4.6743 70.3017 4.27094 70.3686 3.8681 70.3413L2.67792 70.7209C2.63154 70.7279 2.58684 70.7473 2.54672 70.7778C2.50659 70.8083 2.47194 70.8492 2.44501 70.8979C2.41808 70.9465 2.39947 71.0019 2.39038 71.0603C2.3813 71.1187 2.38194 71.179 2.39227 71.2371C2.39227 71.5407 2.60651 71.6015 2.80884 71.5863L4.24896 71.4496C5.09337 71.1992 5.9538 71.0468 6.81974 70.9941C7.15288 70.8449 7.50224 70.763 7.85521 70.7512C10.0396 70.5617 12.2324 70.5921 14.4131 70.8423C18.3216 71.1132 22.2064 71.7885 26.0293 72.8616C29.9616 73.8466 33.7888 75.4214 37.4312 77.5531C38.7453 78.3595 40.0001 79.3147 41.1803 80.4074C41.4506 80.6972 41.7616 80.9187 42.0967 81.0602C42.1591 81.0946 42.2284 81.1028 42.2947 81.0837C42.361 81.0646 42.4209 81.0192 42.4657 80.954C42.4965 80.8686 42.5014 80.7716 42.4795 80.6818C42.4575 80.5921 42.4101 80.5159 42.3466 80.4681Z" fill="#28223E"/>
<path d="M40.5495 81.7131C40.0857 81.4283 39.5988 81.2093 39.0975 81.0602C37.2408 80.4681 35.3841 79.8456 33.5155 79.299C30.23 78.3162 26.8926 77.6413 23.5299 77.2798L18.7692 76.8091H18.2931C14.1274 76.8091 9.96181 76.9761 5.83189 77.4923C4.00658 77.6999 2.19105 78.0293 0.392761 78.4792C0.226135 78.4792 -0.0356974 78.4792 7.98306e-06 78.8436C0.0357134 79.208 0.249939 79.2687 0.476073 79.2839C0.58288 79.2986 0.69062 79.2986 0.797427 79.2839C2.84125 78.8087 4.90305 78.4691 6.97447 78.2666C10.3312 77.8238 13.7045 77.616 17.0791 77.6441C18.3452 77.6086 19.6113 77.7102 20.8639 77.9478C22.1884 77.9372 23.5109 78.0795 24.8153 78.3729C27.8739 78.8254 30.9098 79.4995 33.9083 80.3922C35.6459 80.9084 37.3241 81.6827 39.0379 82.29C39.4545 82.4419 39.8711 82.5633 40.2995 82.6696C40.4039 82.7106 40.5165 82.7008 40.6155 82.6418C40.7145 82.5829 40.7927 82.4792 40.8351 82.3508C41.0017 81.9864 40.7399 81.8346 40.5495 81.7131Z" fill="#2B2743"/>
<path d="M17.1981 5.37465C16.6624 5.41841 16.1251 5.3308 15.6152 5.11655C14.8723 4.95716 14.1185 4.8961 13.3657 4.93435C12.6356 4.92457 11.9198 5.19225 11.3093 5.70327C10.6989 6.2143 10.2215 6.94554 9.93802 7.80387C9.7785 8.48627 9.55048 9.13947 9.25962 9.74725C9.19205 7.78903 9.26775 5.82705 9.48575 3.88675C9.55839 2.58517 9.70156 1.29154 9.91421 0.0151699C9.9931 -0.000255194 10.0734 -0.000255194 10.1523 0.0151699C12.6668 1.42007 15.0338 3.22052 17.1981 5.37465Z" fill="#1F1F3D"/>
<path d="M4.23705 71.3889C5.08253 71.1459 5.94245 70.9935 6.80784 70.9334C6.41508 71.4496 5.86759 71.4041 5.36772 71.5863C4.97496 71.48 4.6179 71.7533 4.17754 71.7381L4.23705 71.3889Z" fill="#F9F9F9"/>
<path d="M4.23705 71.7381C4.61791 71.7381 4.97496 71.48 5.42723 71.5863V71.7836C4.98686 71.9203 4.60601 72.1177 4.23705 71.7381Z" fill="#DE7067"/>
<path d="M89.7992 70.1439C88.9757 69.8094 88.1164 69.6404 87.2522 69.6429C83.878 69.6248 80.5054 69.8275 77.1475 70.2502C71.434 71.0143 65.8284 72.7662 60.485 75.4578C58.4759 76.4762 56.52 77.6578 54.6293 78.9954C54.1865 79.2476 53.8044 79.6459 53.5224 80.1493C53.4941 80.2088 53.4791 80.277 53.4791 80.3467C53.4791 80.4163 53.4941 80.4846 53.5224 80.544C53.5568 80.5997 53.6041 80.64 53.6576 80.6591C53.7111 80.6782 53.768 80.6751 53.82 80.6503C54.1571 80.5376 54.4812 80.3692 54.784 80.1493C55.9742 79.4053 57.0335 78.4944 58.2237 77.8263C61.179 76.1414 64.2259 74.7308 67.3405 73.6055C71.1906 72.2342 75.1372 71.3493 79.1232 70.9638C80.9491 70.7134 82.7871 70.6373 84.6219 70.736H86.6214C87.9544 70.736 89.2874 70.8423 90.6204 70.736C90.4071 70.4257 90.1176 70.2169 89.7992 70.1439Z" fill="#28223E"/>
<path d="M95.8334 78.7525C95.519 78.5531 95.1814 78.4198 94.8336 78.3577L92.9888 78.0389C89.629 77.377 86.2442 76.9412 82.8485 76.7332C81.2299 76.6573 79.6112 76.7332 77.9807 76.6421C74.0781 76.9203 70.1915 77.4881 66.3407 78.3426C62.9368 79.1321 59.5924 80.2252 56.2718 81.3791C55.9796 81.4623 55.7015 81.6114 55.4505 81.8194C55.3793 81.8733 55.3271 81.9603 55.305 82.0622C55.2828 82.164 55.2923 82.2729 55.3315 82.366C55.3315 82.5481 55.5339 82.5633 55.6767 82.533C56.1766 82.3963 56.6883 82.3052 57.1763 82.123C60.7371 80.7375 64.3624 79.6371 68.0308 78.8284C70.2056 78.2901 72.4103 77.9704 74.6244 77.8719C75.313 77.6874 76.0155 77.6008 76.7191 77.6138C81.0609 77.3301 85.4138 77.5333 89.7278 78.2211C91.5249 78.4792 93.2983 78.874 95.0955 79.1928C95.3093 79.2155 95.5243 79.2155 95.7382 79.1928C95.7923 79.1967 95.8459 79.1781 95.891 79.1398C95.936 79.1014 95.9701 79.0454 95.9881 78.9802C95.979 78.9289 95.9602 78.8813 95.9332 78.8416C95.9062 78.8018 95.8719 78.7712 95.8334 78.7525Z" fill="#2B2743"/>
<path d="M86.0382 10.8708C85.8358 10.3242 85.6216 9.76245 85.4193 9.20069C84.2291 5.84532 82.2177 4.84326 79.4684 5.75422C78.873 6.06551 78.2491 6.27975 77.6117 6.39189C78.4584 5.54195 79.3491 4.76587 80.2777 4.06894C81.5857 2.97666 82.9451 1.98793 84.3481 1.10833C84.6622 0.876728 85.004 0.71259 85.3598 0.622482C85.5204 1.59471 85.6357 2.57825 85.7049 3.56791C85.9703 5.98674 86.0817 8.42901 86.0382 10.8708Z" fill="#1F1F3D"/>
<path d="M82.301 9.975C82.3235 10.0176 82.3356 10.0678 82.3356 10.1192C82.3356 10.1706 82.3235 10.2209 82.301 10.2635C80.0474 18.4622 78.3744 26.9021 77.3023 35.4819C75.9857 33.7399 74.5068 32.2102 72.8986 30.9271C71.3326 29.8112 69.7011 28.8518 68.0188 28.0575C68.021 27.8187 68.079 27.5861 68.1855 27.3895C70.2054 22.7853 72.7753 18.6106 75.8026 15.0156C77.4802 13.0627 79.3829 11.4497 81.4441 10.2331C81.6583 10.1117 81.8964 10.0054 82.1225 9.89909C82.1939 9.91427 82.2534 9.95982 82.301 9.975Z" fill="#FFC2A0"/>
<path d="M12.9373 10.1724C13.2699 10.1671 13.5979 10.2717 13.8894 10.476C15.8162 11.4864 17.5676 12.9724 19.0429 14.8486C21.8733 18.4498 24.3802 22.4422 26.5172 26.7518C27.2075 28.1183 27.0528 27.9513 26.065 28.3764C23.0335 29.6732 20.2709 31.8271 17.9836 34.6772C17.8124 34.9947 17.5528 35.2173 17.2576 35.2997C16.452 26.7667 15.0052 18.3522 12.9373 10.1724Z" fill="#FFC2A0"/>
<path d="M32.5991 66.2875L31.4803 66.5608C30.1881 66.8148 28.8677 66.4585 27.7669 65.5588C27.6003 65.2855 27.4337 65.0274 27.279 64.7541C26.8537 64.0607 26.5427 63.2648 26.3648 62.4143C26.1868 61.5637 26.1456 60.676 26.2435 59.8045C26.4428 58.0809 27.1599 56.5237 28.243 55.4623C28.5429 55.2352 28.8088 54.9423 29.0285 54.5969C27.406 54.5589 25.8058 55.0836 24.3987 56.1151C23.2389 56.8627 22.2445 57.9694 21.5066 59.3339C21.1614 59.1668 21.1495 58.848 21.3161 58.514C21.4786 58.1963 21.6617 57.8966 21.8636 57.6182C22.9578 56.0606 24.3281 54.8593 25.8601 54.1145C27.3922 53.3697 29.0417 53.103 30.671 53.3367C31.854 53.5379 32.9922 54.0458 34.0156 54.8291C35.039 55.6124 35.926 56.6546 36.6219 57.8915C37.5838 59.4698 38.2806 61.2838 38.669 63.2206C38.7404 63.585 38.8475 63.9494 38.669 64.2986C38.5143 63.8279 38.3357 63.3572 38.1929 62.8866C37.5058 60.381 36.2089 58.2212 34.4914 56.7224C34.42 56.6313 34.3605 56.5402 34.3129 56.7224C34.3499 56.8865 34.4018 57.0444 34.4676 57.1931C36.003 59.3187 35.5269 63.752 33.2775 65.7258C33.0249 65.855 32.7944 66.0458 32.5991 66.2875Z" fill="#1F1F3D"/>
<path d="M68.9829 65.7561C68.2821 66.3987 67.4669 66.8087 66.6109 66.9492C65.7548 67.0897 64.8848 66.9562 64.0793 66.5608C64.0142 66.4574 63.9425 66.361 63.8651 66.2723C62.8236 65.345 62.0864 63.9607 61.7944 62.3839C61.5024 60.8071 61.6761 59.1483 62.2822 57.7245C62.3536 57.5271 62.5202 57.3297 62.3655 56.9957C60.8646 58.3 59.6646 60.0928 58.8902 62.1882C58.7136 62.8359 58.4822 63.457 58.1999 64.0405C57.938 63.4028 58.1998 62.8259 58.3665 62.2793C59.0007 60.1824 60.0069 58.3012 61.3062 56.7832C63.1459 54.6281 65.5706 53.4706 68.0673 53.5556C70.5641 53.6407 72.937 54.9615 74.6839 57.2386C74.9685 57.6028 75.2164 58.0108 75.4218 58.4533C75.4932 58.6506 75.5527 58.8328 75.4218 59.0302C74.3433 57.6396 73.0774 56.5082 71.6846 55.69C70.3232 54.9568 68.8531 54.6097 67.3762 54.6728C67.3762 55.0068 67.6261 55.0068 67.757 55.0827C68.7019 55.6483 69.4812 56.5829 69.9819 57.7512C70.4826 58.9195 70.6788 60.2608 70.542 61.5809C70.3898 63.151 69.8427 64.616 68.9829 65.7561Z" fill="#1F1F3D"/>
<path d="M41.4183 75.6856L41.6444 75.7919C42.2023 76.1322 42.6789 76.6563 43.025 77.3101C43.1322 77.5075 43.2155 77.7504 43.025 77.963C42.8346 78.1755 42.7156 77.963 42.5966 77.963C42.0629 77.5526 41.614 76.9851 41.2874 76.3081C41.1922 76.0348 41.1327 75.8071 41.4183 75.6856Z" fill="#28223E"/>
<path d="M54.0937 75.7008C54.3675 75.7008 54.4627 75.8526 54.4508 76.0955C54.102 76.8662 53.5795 77.4852 52.9512 77.8719C52.7845 77.8719 52.7012 77.7504 52.6893 77.5682C52.683 77.4355 52.7078 77.3033 52.7607 77.1887C53.1059 76.5644 53.5629 76.0543 54.0937 75.7008Z" fill="#28223E"/>
<path d="M86.419 63.4787C86.3357 63.3724 86.4191 63.5698 86.3476 63.4787C86.4191 63.4787 86.431 63.4787 86.3476 63.6002L86.419 63.4787Z" fill="#FEFFFE"/>
<path d="M48.5832 76.718H48.5237C48.3455 75.3841 48.3095 74.0256 48.4166 72.6794C48.6219 74.0087 48.6781 75.3685 48.5832 76.718Z" fill="#2B2743"/>
<path d="M34.4438 56.7073C34.4185 56.7331 34.387 56.7472 34.3546 56.7472C34.3221 56.7472 34.2906 56.7331 34.2653 56.7073C34.3129 56.5251 34.3724 56.6162 34.4438 56.7073Z" fill="#DE7067"/>
<path d="M43.5642 77.9421C44.6392 76.8816 46.0594 76.2068 47.5888 76.0297C48.4231 75.9422 49.2671 76.0487 50.0496 76.3401C50.8322 76.6316 51.5304 77.0995 52.0856 77.7044C52.3329 78.7201 52.6702 79.7141 52.85 80.7514C53.0011 81.2218 53.0387 81.719 52.9599 82.2055C52.8812 82.6919 52.6882 83.1547 52.3957 83.5587C52.1031 83.9628 51.7187 84.2975 51.2715 84.5375C50.8243 84.7774 50.3261 84.9164 49.8147 84.9437C48.9041 85.0842 49.0165 85.0086 49.0165 85.8081C49.0165 87.202 49.0165 88.6066 49.0165 90.0652C49.3626 90.0057 49.6925 89.8792 49.9863 89.6935C50.28 89.5078 50.5314 89.2666 50.7253 88.9847C50.9538 88.6714 51.2395 88.4006 51.5685 88.1852C51.6613 88.1194 51.7735 88.0839 51.8889 88.0839C52.0042 88.0839 52.1165 88.1194 52.2093 88.1852C52.283 88.2499 52.3391 88.331 52.3724 88.4215C52.4057 88.512 52.4153 88.6089 52.4004 88.7038C52.3796 88.8954 52.3058 89.0782 52.1868 89.2333C51.4257 90.4682 50.2291 91.3998 48.8142 91.8589C48.0485 92.0951 47.2169 92.033 46.4983 91.686C45.4193 91.1889 44.4645 90.4739 43.6991 89.5898L43.5754 89.4386C43.2045 88.8983 43.1482 88.4445 43.4743 88.2392C43.8003 88.0339 44.3062 88.2392 44.5985 88.4985C44.8907 88.7578 45.3067 89.1576 45.6552 89.5034C46.0987 89.9431 46.6465 90.2731 47.2516 90.465C47.3649 90.0823 47.3918 89.6808 47.3302 89.2873C47.3302 88.0771 47.2403 86.867 47.2403 85.6569C47.2403 85.1814 47.0604 84.9869 46.5883 84.9329C46.056 84.8937 45.5329 84.7771 45.0369 84.5872C44.4237 84.3819 43.8951 83.993 43.5289 83.4776C43.1626 82.9622 42.978 82.3475 43.0021 81.7239C43.0267 80.4458 43.2155 79.1756 43.5642 77.9421ZM46.8244 82.6855C46.8358 82.5922 46.8358 82.4979 46.8244 82.4046C46.8244 82.1561 46.8244 81.8427 46.4871 81.7671C46.1498 81.6914 46.0824 82.0264 45.97 82.2317C45.8484 82.419 45.7574 82.623 45.7002 82.8368C45.6427 83.0059 45.6564 83.1899 45.7383 83.3495C45.8203 83.509 45.964 83.6314 46.1386 83.6903C46.4609 83.6903 46.7569 83.4958 46.8244 83.0637C46.8359 82.9378 46.8359 82.8113 46.8244 82.6855ZM49.5786 81.6698C49.315 82.2206 49.1608 82.8261 49.2031 83.431C49.2031 83.7012 49.3875 83.9389 49.7135 83.9389C50.0396 83.9389 50.1745 83.712 50.2082 83.431C50.2579 83.1105 50.2267 82.7831 50.1171 82.4766C50.0075 82.17 49.8228 81.8933 49.5786 81.6698Z" fill="#0B1225"/>
<path d="M21.3161 58.514L26.5 54.5L29.0285 54.5969L34.5 56.5L36.1094 57.8915L38 61L38.6214 64.2834L36.6219 65.398L35.2513 65.8797L33.9307 66.1669L32.5991 66.2875L27.7669 65.5588L26.3648 64.8713L25.7198 64.3441L23.8622 62.5L23.03 61.4139L21.9593 60L21.5066 59.3339L21.3161 58.514Z" fill="white"/>
<path d="M32.611 66.2875L31.4922 66.5608C30.2 66.8148 28.8796 66.4585 27.7788 65.5588C27.6122 65.2855 27.4456 65.0274 27.2909 64.7541C26.8656 64.0608 26.5546 63.2649 26.3767 62.4143C26.1987 61.5637 26.1575 60.676 26.2554 59.8045C26.4547 58.0809 27.1718 56.5237 28.2549 55.4623C28.5548 55.2353 28.8207 54.9423 29.0404 54.5969C27.4179 54.5589 25.8177 55.0837 24.4106 56.1151C23.2508 56.8627 22.2564 57.9694 21.5185 59.3339C21.1733 59.1669 21.1614 58.848 21.328 58.514C21.4905 58.1963 21.6736 57.8966 21.8755 57.6182C22.9697 56.0606 24.34 54.8593 25.872 54.1145C27.4041 53.3697 29.0536 53.103 30.6829 53.3367C31.8659 53.5379 33.0041 54.0458 34.0275 54.8291C35.0509 55.6124 35.9379 56.6546 36.6338 57.8915C37.5957 59.4698 38.2925 61.2838 38.6809 63.2206C38.7523 63.585 38.8594 63.9494 38.6809 64.2986C38.5262 63.8279 38.3476 63.3573 38.2048 62.8866C37.5177 60.381 36.2208 58.2212 34.5034 56.7224C34.4319 56.6313 34.3724 56.5402 34.3248 56.7224C34.3618 56.8865 34.4137 57.0445 34.4795 57.1931C36.0149 59.3187 35.5388 63.752 33.2894 65.7258C33.0368 65.855 32.8063 66.0458 32.611 66.2875Z" fill="#1F1F3D"/>
<path d="M61.9975 56.6578L67.3762 54L71.6846 55.3438L74 57L75.4218 59.0302L75.1086 59.9165L74.7329 60.681L74.1767 61.5809L73.6484 62.2641L72.3843 63.7277L71.226 64.7231L70.0007 65.5059L67.5 66.7824L66.5871 67.0403H65.2598L64.0555 66.6519L63 66.6017L61.9578 66.2723L59.8047 65.2144L58.176 64.1316L59.5 60.5L61.9975 56.6578Z" fill="white"/>
<path d="M64.4364 66.6759L65.5552 66.9492C66.8473 67.2032 68.1677 66.8469 69.2685 65.9472C69.4352 65.6739 69.6018 65.4158 69.7565 65.1425C70.1818 64.4492 70.4928 63.6533 70.6707 62.8027C70.8486 61.9521 70.8899 61.0644 70.792 60.1929C70.5926 58.4693 69.8756 56.9121 68.7925 55.8507C68.4926 55.6237 68.2267 55.3307 68.0069 54.9853C69.6295 54.9473 71.2297 55.4721 72.6367 56.5036C73.7966 57.2512 74.7909 58.3578 75.5289 59.7223C75.874 59.5553 75.8859 59.2365 75.7193 58.9024C75.5569 58.5847 75.3738 58.2851 75.1718 58.0066C74.0777 56.449 72.7074 55.2477 71.1753 54.5029C69.6433 53.7581 67.9938 53.4914 66.3645 53.7251C65.1815 53.9263 64.0432 54.4342 63.0198 55.2175C61.9964 56.0009 61.1095 57.043 60.4136 58.2799C59.4517 59.8582 58.7548 61.6722 58.3665 63.6091C58.2951 63.9734 58.1879 64.3378 58.3665 64.687C58.5212 64.2164 58.6997 63.7457 58.8425 63.275C59.5297 60.7695 60.8266 58.6097 62.544 57.1109C62.6154 57.0198 62.6749 56.9287 62.7225 57.1109C62.6856 57.2749 62.6336 57.4329 62.5678 57.5815C61.0325 59.7071 61.5085 64.1404 63.758 66.1142C64.0106 66.2435 64.241 66.4343 64.4364 66.6759Z" fill="#1F1F3D"/>
<path d="M46.841 82.7607C46.8244 83.6445 46.4147 83.6903 46.1386 83.6903C45.8625 83.6903 45.5 83.5 45.6941 82.8554C45.7147 82.7851 46.0649 81.7607 46.341 81.7607C46.8828 81.7607 46.841 82.2084 46.841 82.7607Z" fill="white"/>
<path d="M49.7135 83.9389C49.2414 83.9389 49.2031 83.5938 49.2031 83.431C49.1675 82.9222 49.2443 82.3682 49.5786 81.6698C50 82 50.0205 82.2515 50.1171 82.4766C50.5 83.5 50.1171 84.0859 49.7135 83.9389Z" fill="white"/>
</g>
<defs>
<clipPath id="clip0_58_150">
<rect width="96" height="96" fill="white"/>
</clipPath>
</defs>
</svg>
